<svg width="100" height="100" viewBox="0 0 100 100" fill="none" xmlns="http://www.w3.org/2000/svg">
<circle cx="50" cy="50" r="50" fill="#03418A"/>
<path d="M50 41.0291C48.0311 41.0282 46.0816 40.6389 44.2629 39.8835C42.4442 39.1282 40.7918 38.0214 39.4002 36.6266C38.0086 35.2317 36.905 33.576 36.1523 31.754C35.3997 29.932 35.0127 27.9794 35.0136 26.0077C35.0145 24.036 35.4032 22.0837 36.1575 20.2624C36.9118 18.4411 38.017 16.7864 39.4098 15.3928C40.8027 13.9992 42.4561 12.894 44.2755 12.1403C46.0949 11.3866 48.0447 10.9991 50.0136 11C53.9901 11.0018 57.8029 12.5854 60.6134 15.4025C63.4239 18.2195 65.0018 22.0393 65 26.0214C64.9982 30.0035 63.4168 33.8217 60.6038 36.6362C57.7907 39.4507 53.9764 41.0309 50 41.0291ZM50 57.9573C53.9782 57.9573 57.7936 59.5399 60.6066 62.357C63.4196 65.174 65 68.9947 65 72.9787C65 76.9626 63.4196 80.7833 60.6066 83.6003C57.7936 86.4174 53.9782 88 50 88C46.0217 88 42.2064 86.4174 39.3934 83.6003C36.5804 80.7833 35 76.9626 35 72.9787C35 68.9947 36.5804 65.174 39.3934 62.357C42.2064 59.5399 46.0217 57.9573 50 57.9573Z" fill="#D6EEF8"/>
</svg>
