<svg width="60" height="60" viewBox="0 0 60 60" fill="none" xmlns="http://www.w3.org/2000/svg">
<path d="M45.75 14.2751C45.5187 14.0433 45.244 13.8594 44.9415 13.734C44.6391 13.6085 44.3149 13.544 43.9875 13.544C43.6601 13.544 43.3359 13.6085 43.0334 13.734C42.731 13.8594 42.4563 14.0433 42.225 14.2751L30 26.4751L17.775 14.2501C17.5435 14.0186 17.2688 13.835 16.9664 13.7098C16.6639 13.5845 16.3398 13.52 16.0125 13.52C15.6852 13.52 15.361 13.5845 15.0586 13.7098C14.7562 13.835 14.4814 14.0186 14.25 14.2501C14.0185 14.4815 13.8349 14.7563 13.7097 15.0587C13.5844 15.3611 13.5199 15.6852 13.5199 16.0126C13.5199 16.3399 13.5844 16.664 13.7097 16.9664C13.8349 17.2688 14.0185 17.5436 14.25 17.7751L26.475 30.0001L14.25 42.2251C14.0185 42.4565 13.8349 42.7313 13.7097 43.0337C13.5844 43.3361 13.5199 43.6602 13.5199 43.9876C13.5199 44.3149 13.5844 44.639 13.7097 44.9414C13.8349 45.2438 14.0185 45.5186 14.25 45.7501C14.4814 45.9815 14.7562 46.1651 15.0586 46.2904C15.361 46.4156 15.6852 46.4801 16.0125 46.4801C16.3398 46.4801 16.6639 46.4156 16.9664 46.2904C17.2688 46.1651 17.5435 45.9815 17.775 45.7501L30 33.5251L42.225 45.7501C42.4564 45.9815 42.7312 46.1651 43.0336 46.2904C43.336 46.4156 43.6602 46.4801 43.9875 46.4801C44.3148 46.4801 44.6389 46.4156 44.9413 46.2904C45.2438 46.1651 45.5185 45.9815 45.75 45.7501C45.9814 45.5186 46.165 45.2438 46.2903 44.9414C46.4156 44.639 46.48 44.3149 46.48 43.9876C46.48 43.6602 46.4156 43.3361 46.2903 43.0337C46.165 42.7313 45.9814 42.4565 45.75 42.2251L33.525 30.0001L45.75 17.7751C46.7 16.8251 46.7 15.2251 45.75 14.2751Z" fill="#D6EEF8"/>
</svg>
