<svg width="401" height="144" viewBox="0 0 401 144" fill="none" xmlns="http://www.w3.org/2000/svg">
<rect x="179" y="17" width="42" height="44" fill="#D6EEF8"/>
<path d="M196 52.5L212.25 42.0833C213.028 41.5833 213.417 40.8888 213.417 40C213.417 39.1111 213.028 38.4166 212.25 37.9166L196 27.5C195.167 26.9444 194.319 26.9022 193.457 27.3733C192.594 27.8444 192.164 28.5811 192.167 29.5833V50.4166C192.167 51.4166 192.598 52.1533 193.46 52.6266C194.322 53.1 195.169 53.0577 196 52.5ZM200.5 73.3333C195.889 73.3333 191.556 72.4577 187.5 70.7066C183.444 68.9555 179.917 66.5811 176.917 63.5833C173.917 60.5833 171.542 57.0555 169.793 53C168.044 48.9444 167.169 44.6111 167.167 40C167.167 35.3888 168.042 31.0555 169.793 27C171.544 22.9444 173.919 19.4166 176.917 16.4166C179.917 13.4166 183.444 11.0422 187.5 9.29329C191.556 7.5444 195.889 6.66885 200.5 6.66663C205.111 6.66663 209.444 7.54218 213.5 9.29329C217.556 11.0444 221.083 13.4188 224.083 16.4166C227.083 19.4166 229.459 22.9444 231.21 27C232.961 31.0555 233.836 35.3888 233.833 40C233.833 44.6111 232.958 48.9444 231.207 53C229.456 57.0555 227.081 60.5833 224.083 63.5833C221.083 66.5833 217.556 68.9588 213.5 70.71C209.444 72.4611 205.111 73.3355 200.5 73.3333Z" fill="#03418A"/>
<path d="M42.834 130H35.0459L23.5957 98.8477H31.1396L38.9277 122.749L46.7891 98.8477H54.5283L42.834 130ZM58.6055 130V104.243H65.9053V130H58.6055ZM57.751 98.7012V93.5498H66.7598V98.7012H57.751ZM88.1709 112.446C86.7874 110.509 84.9727 109.541 82.7266 109.541C79.7155 109.541 78.21 111.576 78.21 115.645V118.599C78.21 122.7 79.7155 124.751 82.7266 124.751C84.9727 124.751 86.7874 123.783 88.1709 121.846V112.446ZM88.1709 130V127.9C86.8363 129.593 84.6064 130.439 81.4814 130.439C78.3239 130.439 75.8011 129.373 73.9131 127.241C71.9111 124.995 70.9102 121.935 70.9102 118.062V116.255C70.9102 112.397 71.9111 109.346 73.9131 107.1C75.8662 104.902 78.389 103.804 81.4814 103.804C84.5088 103.804 86.7386 104.666 88.1709 106.392V93.208H95.4707V130H88.1709ZM118.225 114.692C118.225 111.095 116.467 109.297 112.951 109.297C109.484 109.297 107.751 111.095 107.751 114.692H118.225ZM107.751 119.404V119.844C107.751 123.213 109.769 124.897 113.806 124.897C115.14 124.897 116.491 124.727 117.858 124.385C119.242 124.043 120.674 123.53 122.155 122.847L124.206 127.803C120.821 129.561 117.069 130.439 112.951 130.439C109.289 130.439 106.294 129.43 103.967 127.412C101.623 125.361 100.451 122.676 100.451 119.355V114.912C100.451 113.219 100.744 111.714 101.33 110.396C101.916 109.061 102.795 107.881 103.967 106.855C106.294 104.821 109.289 103.804 112.951 103.804C116.662 103.804 119.665 104.805 121.96 106.807C123.132 107.832 124.019 109.02 124.621 110.371C125.223 111.706 125.524 113.219 125.524 114.912V119.404H107.751ZM146.325 114.644C146.325 111.242 144.592 109.541 141.125 109.541C137.658 109.541 135.925 111.242 135.925 114.644V119.6C135.925 123.034 137.658 124.751 141.125 124.751C144.592 124.751 146.325 123.034 146.325 119.6V114.644ZM153.625 119.355C153.625 122.676 152.478 125.361 150.183 127.412C149.06 128.438 147.741 129.202 146.228 129.707C144.714 130.195 143.013 130.439 141.125 130.439C137.349 130.439 134.322 129.43 132.043 127.412C130.92 126.387 130.065 125.207 129.479 123.872C128.91 122.537 128.625 121.032 128.625 119.355V114.912C128.625 113.219 128.91 111.714 129.479 110.396C130.065 109.061 130.92 107.881 132.043 106.855C134.322 104.821 137.349 103.804 141.125 103.804C143.013 103.804 144.714 104.056 146.228 104.561C147.741 105.065 149.06 105.83 150.183 106.855C151.338 107.881 152.201 109.061 152.771 110.396C153.34 111.714 153.625 113.219 153.625 114.912V119.355ZM184.851 105.806L180.798 118.062H188.879L184.851 105.806ZM192.834 130L190.686 123.457H178.991L176.843 130H169.25L180.944 98.8477H188.732L200.183 130H192.834ZM216.833 98.9941C214.294 98.9941 213.024 100.011 213.024 102.046V104.243H218.933V110.054H213.024V130H205.725V110.054H201.623V104.243H205.725V102.559C205.725 99.4661 206.726 97.1305 208.728 95.5518C210.632 93.9893 213.334 93.208 216.833 93.208H220.446V98.9941H216.833ZM245.275 121.748C245.275 124.092 244.315 126.094 242.395 127.754C240.148 129.544 237.129 130.439 233.337 130.439C231.27 130.439 229.39 130.252 227.697 129.878C226.005 129.504 224.466 128.926 223.083 128.145L224.694 123.188C226.81 124.393 229.406 124.995 232.482 124.995C236.242 124.995 238.122 124.181 238.122 122.554C238.122 121.512 237.658 120.828 236.73 120.503C235.9 120.096 234.468 119.893 232.434 119.893C229.911 119.893 227.827 119.396 226.184 118.403C223.986 117.052 222.888 114.953 222.888 112.104C222.888 109.793 223.783 107.856 225.573 106.294C227.608 104.634 230.375 103.804 233.874 103.804C235.843 103.804 237.658 103.95 239.318 104.243C240.979 104.536 242.5 104.992 243.884 105.61L242.272 110.444C240.922 110.021 239.66 109.712 238.488 109.517C237.316 109.305 236.218 109.199 235.192 109.199C231.758 109.199 230.041 109.98 230.041 111.543C230.041 113.073 232.002 113.838 235.925 113.838C238.48 113.838 240.58 114.391 242.224 115.498C244.258 116.882 245.275 118.965 245.275 121.748ZM267.614 115.645C267.614 111.576 266.117 109.541 263.122 109.541C261.983 109.541 260.957 109.777 260.046 110.249C259.151 110.721 258.337 111.437 257.604 112.397V121.797C258.337 122.773 259.151 123.514 260.046 124.019C260.957 124.507 261.983 124.751 263.122 124.751C266.117 124.751 267.614 122.7 267.614 118.599V115.645ZM274.914 118.062C274.914 121.87 273.913 124.897 271.911 127.144C269.958 129.341 267.443 130.439 264.367 130.439C261.307 130.439 259.053 129.593 257.604 127.9V141.011H250.354V104.243H257.604V106.392C258.972 104.666 261.226 103.804 264.367 103.804C267.476 103.804 269.991 104.886 271.911 107.051C273.913 109.297 274.914 112.365 274.914 116.255V118.062ZM295.764 114.692C295.764 111.095 294.006 109.297 290.49 109.297C287.023 109.297 285.29 111.095 285.29 114.692H295.764ZM285.29 119.404V119.844C285.29 123.213 287.308 124.897 291.345 124.897C292.679 124.897 294.03 124.727 295.397 124.385C296.781 124.043 298.213 123.53 299.694 122.847L301.745 127.803C298.36 129.561 294.608 130.439 290.49 130.439C286.828 130.439 283.833 129.43 281.506 127.412C279.162 125.361 277.99 122.676 277.99 119.355V114.912C277.99 113.219 278.283 111.714 278.869 110.396C279.455 109.061 280.334 107.881 281.506 106.855C283.833 104.821 286.828 103.804 290.49 103.804C294.201 103.804 297.204 104.805 299.499 106.807C300.671 107.832 301.558 109.02 302.16 110.371C302.762 111.706 303.063 113.219 303.063 114.912V119.404H285.29ZM308.068 130V93.208H315.319V130H308.068ZM338.098 114.692C338.098 111.095 336.34 109.297 332.824 109.297C329.357 109.297 327.624 111.095 327.624 114.692H338.098ZM327.624 119.404V119.844C327.624 123.213 329.642 124.897 333.679 124.897C335.013 124.897 336.364 124.727 337.731 124.385C339.115 124.043 340.547 123.53 342.028 122.847L344.079 127.803C340.694 129.561 336.942 130.439 332.824 130.439C329.162 130.439 326.167 129.43 323.84 127.412C321.496 125.361 320.324 122.676 320.324 119.355V114.912C320.324 113.219 320.617 111.714 321.203 110.396C321.789 109.061 322.668 107.881 323.84 106.855C326.167 104.821 329.162 103.804 332.824 103.804C336.535 103.804 339.538 104.805 341.833 106.807C343.005 107.832 343.892 109.02 344.494 110.371C345.096 111.706 345.397 113.219 345.397 114.912V119.404H327.624ZM367.663 130V115.645C367.663 113.561 367.362 112.048 366.76 111.104C366.06 110.062 364.864 109.541 363.171 109.541C362.032 109.541 361.006 109.777 360.095 110.249C359.2 110.721 358.386 111.437 357.653 112.397V130H350.402V104.243H357.653V106.392C357.93 106.066 358.288 105.757 358.728 105.464C359.183 105.171 359.712 104.902 360.314 104.658C361.633 104.089 362.984 103.804 364.367 103.804C371.431 103.804 374.963 107.954 374.963 116.255V130H367.663Z" fill="#D6EEF8"/>
</svg>
