<svg width="60" height="60" viewBox="0 0 60 60" fill="none" xmlns="http://www.w3.org/2000/svg">
<path d="M50 33.75C50 42.725 42.725 50 33.75 50H17.5C16.1193 50 15 48.8807 15 47.5V47.5C15 46.1193 16.1193 45 17.5 45H33.75C40 45 45 40 45 33.75C45 27.5 40 22.5 33.75 22.5H19.575L25.5168 28.4611C26.4883 29.4357 26.487 31.013 25.5139 31.9861V31.9861C24.5397 32.9603 22.9603 32.9603 21.9861 31.9861L12.8284 22.8284C11.2663 21.2663 11.2663 18.7337 12.8284 17.1716L21.9875 8.01251C22.9619 7.0381 24.5409 7.03531 25.5187 8.00627V8.00627C26.5015 8.9821 26.5043 10.5707 25.525 11.55L19.575 17.5H33.75C42.725 17.5 50 24.775 50 33.75Z" fill="#D6EEF8"/>
</svg>
