<svg width="40" height="40" viewBox="0 0 40 40" fill="none" xmlns="http://www.w3.org/2000/svg">
<g clip-path="url(#clip0_242_63)">
<path d="M20 40C14.6957 40 9.60859 37.8929 5.85786 34.1421C2.10714 30.3914 0 25.3043 0 20C0 14.6957 2.10714 9.60859 5.85786 5.85786C9.60859 2.10714 14.6957 0 20 0C25.3043 0 30.3914 2.10714 34.1421 5.85786C37.8929 9.60859 40 14.6957 40 20C40 25.3043 37.8929 30.3914 34.1421 34.1421C30.3914 37.8929 25.3043 40 20 40ZM27.5775 10C24.6734 10.0002 21.8884 11.1539 19.835 13.2075L19.26 13.78C18.87 14.1725 18.49 14.58 18.13 15.005H14.125C13.751 15.0051 13.3832 15.1009 13.0567 15.2834C12.7303 15.4659 12.456 15.7289 12.26 16.0475L10.12 19.5175C10.0455 19.6399 9.99991 19.7776 9.98663 19.9202C9.97335 20.0628 9.99275 20.2066 10.0434 20.3406C10.094 20.4746 10.1745 20.5953 10.2787 20.6935C10.383 20.7918 10.5082 20.8649 10.645 20.9075L14.525 22.1L17.9 25.475L19.095 29.3575C19.1364 29.4948 19.2088 29.6207 19.3067 29.7256C19.4045 29.8304 19.5252 29.9113 19.6593 29.9621C19.7934 30.0128 19.9374 30.0321 20.0802 30.0183C20.2229 30.0045 20.3606 29.958 20.4825 29.8825L23.955 27.745C24.2731 27.5487 24.5357 27.2743 24.7177 26.9478C24.8998 26.6214 24.9952 26.2538 24.995 25.88V21.8675C25.42 21.5075 25.8275 21.13 26.22 20.7375L26.795 20.1625C28.8473 18.1095 30.0001 15.3254 30 12.4225V12.19C30 11.6092 29.7693 11.0521 29.3586 10.6414C28.9479 10.2307 28.3908 10 27.81 10H27.5775ZM14.81 27.86C15.0037 27.4231 15.034 26.9318 14.9001 26.473C14.7661 26.0143 14.474 25.6178 14.0756 25.3539C13.6772 25.09 13.1981 24.9757 12.7235 25.0313C12.2488 25.0868 11.8092 25.3087 11.4825 25.6575C10.495 26.6425 10.0725 28.8025 9.9325 29.7075C9.92367 29.7562 9.92703 29.8064 9.9423 29.8535C9.95757 29.9006 9.98426 29.9432 10.02 29.9775C10.0543 30.0132 10.0969 30.0399 10.144 30.0552C10.1911 30.0705 10.2413 30.0738 10.29 30.065C11.195 29.925 13.355 29.5025 14.34 28.5175C14.5396 28.3325 14.6995 28.1088 14.81 27.86Z" fill="#D6EEF8"/>
</g>
<defs>
<clipPath id="clip0_242_63">
<rect width="40" height="40" fill="white"/>
</clipPath>
</defs>
</svg>
