<svg width="60" height="60" viewBox="0 0 60 60" fill="none" xmlns="http://www.w3.org/2000/svg">
<path d="M23.125 55L22.125 47C21.5833 46.7917 21.0725 46.5417 20.5925 46.25C20.1125 45.9583 19.6442 45.6458 19.1875 45.3125L11.75 48.4375L4.875 36.5625L11.3125 31.6875C11.2708 31.3958 11.25 31.1142 11.25 30.8425V29.1575C11.25 28.8858 11.2708 28.6042 11.3125 28.3125L4.875 23.4375L11.75 11.5625L19.1875 14.6875C19.6458 14.3542 20.125 14.0417 20.625 13.75C21.125 13.4583 21.625 13.2083 22.125 13L23.125 5H36.875L37.875 13C38.4167 13.2083 38.9275 13.4583 39.4075 13.75C39.8875 14.0417 40.3558 14.3542 40.8125 14.6875L48.25 11.5625L55.125 23.4375L48.6875 28.3125C48.7292 28.6042 48.75 28.8858 48.75 29.1575V30.8425C48.75 31.1142 48.7083 31.3958 48.625 31.6875L55.0625 36.5625L48.1875 48.4375L40.8125 45.3125C40.3542 45.6458 39.875 45.9583 39.375 46.25C38.875 46.5417 38.375 46.7917 37.875 47L36.875 55H23.125ZM30.125 38.75C32.5417 38.75 34.6042 37.8958 36.3125 36.1875C38.0208 34.4792 38.875 32.4167 38.875 30C38.875 27.5833 38.0208 25.5208 36.3125 23.8125C34.6042 22.1042 32.5417 21.25 30.125 21.25C27.6667 21.25 25.5933 22.1042 23.905 23.8125C22.2167 25.5208 21.3733 27.5833 21.375 30C21.375 32.4167 22.2183 34.4792 23.905 36.1875C25.5917 37.8958 27.665 38.75 30.125 38.75Z" fill="#D6EEF8"/>
</svg>
